#!OML:ASF F:\VICON\USERDATA\INSTALL\rory3\rory3.ASF
:FULLY-SPECIFIED
:DEGREES
57
root -0.7961159776823551 17.428301666106375 22.41327679813458 5.990531125828525 -0.9830407204390854 -4.3872110703424685
lfemur -28.57376439014658 3.516160259581493 -12.64622712092501
ltibia 104.27463994991749
lfoot 9.858920731414084 -11.161599275408868
ltoes -2.874578840041611
rfemur -19.351824391011213 8.737197403443947 35.12673764580548
rtibia 55.035900133887715
rfoot -20.302146303346596 -12.810076764956314
rtoes -15.78761261464099
lowerback 14.38590074440822 -0.20880668974608407 3.005729742639543
upperback -0.8616468792147343 0.2395240723338864 3.19511407383607
thorax -10.40231899415136 0.0914665756774829 1.2580663613770118
lowerneck -20.27854062958261 -3.8166983424590932 -2.456789926601296
upperneck 15.581520038603662 -4.671415953223081 0.8567627934974389
head 8.859558764960854 -2.152791143829614 0.0515829489903763
lclavicle -6.4774194889615965e-16 -4.860669805453514e-15
lhumerus -57.206400433726614 -13.483105203613633 99.24686352654875
lradius 110.00011781956533
lwrist 30.98959653272171
lhand -29.841058224504426 1.0385531513991693
lfingers 7.125019999999998
lthumb -3.3525403775334905 30.86845275228764
rclavicle -6.5068704166845735e-16 -4.861963049272802e-15
rhumerus -51.76728472984994 10.889252834117684 -99.86183748792928
rradius 116.50486494013353
rwrist -10.555829084502966
rhand -18.385266605124507 34.426150047261814
rfingers 7.125019999999998
rthumb 8.232466374200474 4.998500657876765
58
root -0.813578160125376 17.574707691887124 23.45478926921123 6.414800169624727 -0.2981076012428532 -4.493484221570685
lfemur -32.307054371757275 3.253884378527889 -12.854555368866246
ltibia 104.7301049684387
lfoot 7.135868651648794 -9.913477900723036
ltoes -2.684108552344769
rfemur -15.887695685437917 10.119763984846296 35.25094087525699
rtibia 51.905184093368504
rfoot -17.302639203295133 -11.375776581704514
rtoes -17.153732548845074
lowerback 13.438498153808757 0.1302377195956893 3.6064151605276407
upperback -1.1322983053476123 0.7715503179522911 2.969354458790619
thorax -10.183109666886164 0.3143311699795577 0.8233656594466143
lowerneck -20.869304324960034 -4.0468204914766694 -2.3824007000644136
upperneck 15.151166176105567 -5.011049322239108 1.2545723294343776
head 8.759219072596538 -2.2916269722481473 0.19108499560401043
lclavicle -6.474482799229631e-16 -4.860462259428407e-15
lhumerus -58.20684944681781 -12.901013293579345 99.16774846120755
lradius 110.87041637057699
lwrist 32.09281004747629
lhand -30.010679933388193 0.7093342543688174
lfingers 7.125019999999998
lthumb -3.4909163991399668 30.64574556789222
rclavicle -6.491675128195834e-16 -4.860805228344757e-15
rhumerus -51.382122828697966 10.990298080209516 -99.50838011555882
rradius 115.448099886401
rwrist -10.285498399157369
rhand -18.500766316849244 34.544832262109885
rfingers 7.125019999999998
rthumb 8.18590024263183 5.110631713862348
59
root -0.7947885835508111 17.774696225618133 24.58368611475013 7.406265456007352 0.03646011892301837 -4.727714204663038
lfemur -34.97971238707101 3.013359085763263 -13.178507128886167
ltibia 102.73499025017423
lfoot 4.837286145727641 -8.679602230511726
ltoes -2.525689325834282
rfemur -13.062195222733633 11.99921501179084 35.50355933542199
rtibia 48.69229125210232
rfoot -13.018899990418745 -9.328653014834316
rtoes -15.891787588852134
lowerback 12.174570979531584 0.5359008642895616 4.102903210340317
upperback -1.4063665789859114 1.430160691339628 2.5823669118488466
thorax -9.89609312143592 0.5734923484581286 0.12203251167977042
lowerneck -21.14493317714934 -4.2120038070897845 -2.41116875027039
upperneck 14.554266290464223 -5.278699785522694 1.8532992621523487
head 8.543827780876143 -2.3937761874959063 0.44232079179367245
lclavicle -6.479643456455748e-16 -4.860827128610969e-15
lhumerus -59.02461785086757 -12.224477047456235 98.9594358663855
lradius 111.42166628135882
lwrist 32.95741525605301
lhand -30.117015037034776 0.5730264261425446
lfingers 7.125019999999998
lthumb -3.5929628716589495 30.56689070198285
rclavicle -6.466153810500666e-16 -4.858963118602721e-15
rhumerus -50.99218526328081 11.170425298739062 -99.17431478867402
rradius 114.35068056445253
rwrist -10.130051845189591
rhand -18.53635664828117 34.787509191138525
rfingers 7.125019999999998
rthumb 8.137457195389304 5.2323121326923
60
root -0.7976322712503876 18.009791806088916 25.212467016269812 6.041813131353721 -0.059667133340321366 -4.397051343291576
lfemur -35.96375687815076 2.9230393898051994 -14.236854901812777
ltibia 98.68118543187606
lfoot 3.059099401219712 -7.7556557183359125
ltoes -2.731009648911243
rfemur -8.989100548065673 12.143397977951121 35.27902602831739
rtibia 44.543900955603895
rfoot -6.884418066126125 -6.62146306903453
rtoes -10.836062588318564
lowerback 13.35552928452306 0.8332642581455229 4.339978116358408
upperback -1.5832200522600453 1.9566236240962902 2.183291336542092
thorax -9.666836972655982 0.7638833665215201 -0.6353012368804137
lowerneck -21.31733545634634 -4.348075992151809 -2.3980001720548922
upperneck 14.0052178347917 -5.528311548094183 2.3959261768093394
head 8.303364804266051 -2.4915854125127526 0.6578740706937943
lclavicle -6.481785599789714e-16 -4.860978632624303e-15
lhumerus -59.85659735625159 -11.631292561811332 98.59855356588781
lradius 111.75557988957715
lwrist 33.80834557537217
lhand -30.13722366392626 0.5840761278679132
lfingers 7.125019999999998
lthumb -3.653241772449691 30.542926455784443
rclavicle -6.447052167807959e-16 -4.8576118938302945e-15
rhumerus -50.613177785655665 11.410076796470657 -98.87001724623099
rradius 113.31524813999899
rwrist -10.09617039395848
rhand -18.55103786387113 34.962633728018986
rfingers 7.125019999999998
rthumb 8.10723318955487 5.336489340414317
61
root -0.7915508263275793 18.22138762202898 26.627850044728604 5.800010377606224 0.870391707087208 -3.637676781214168
lfemur -36.312688060342516 1.801658624592183 -15.93800038463947
ltibia 92.96998537731142
lfoot 1.8573411560089175 -7.411625282225588
ltoes -3.6980287691300004
rfemur -5.964311421491056 11.354121362332794 34.380722288512914
rtibia 39.5080845023581
rfoot 0.4074880058794572 -4.088583616883671
rtoes -4.308861664379577
lowerback 12.620376157240834 0.9504396668362731 4.317156147448766
upperback -1.6300601228311986 2.0852146121769826 1.648269470060485
thorax -9.590830212361123 0.7870573892228272 -1.1887075048200213
lowerneck -21.43718115359316 -4.477646927591653 -2.3304813120418375
upperneck 13.579057228694971 -5.770982702046166 2.8231776533738384
head 8.063908353560585 -2.591967452990525 0.8004905783375551
lclavicle -6.488104507691908e-16 -4.861425117213072e-15
lhumerus -60.67246693520004 -11.208849393316395 98.17308664667165
lradius 111.91502990678993
lwrist 34.71499057651235
lhand -30.158968398538477 0.6064480848247089
lfingers 7.125019999999998
lthumb -3.718606360495217 30.46930899524922
rclavicle -6.432848372790751e-16 -4.8566520265023976e-15
rhumerus -50.240115020101214 11.691850338576934 -98.58735524227244
rradius 112.42889280800543
rwrist -10.20350064811442
rhand -18.546355081906036 35.14250309901142
rfingers 7.125019999999998
rthumb 8.085333868100662 5.436621208835074
